HIERARCHY
ROOT SpineBase
{
  OFFSET 0.000000 0.000000 0.000000
  CHANNELS 6 Xposition Yposition Zposition Zrotation Xrotation Yrotation
  JOINT SpineMid
  {
    OFFSET 0.000000 30.877797 0.000000
    CHANNELS 3 Zrotation Xrotation Yrotation
    JOINT SpineShoulder
    {
      OFFSET 0.092929 22.910769 -0.749001
      CHANNELS 3 Zrotation Xrotation Yrotation
      JOINT Neck
      {
        OFFSET 0.058354 7.567917 -0.572445
        CHANNELS 3 Zrotation Xrotation Yrotation
        JOINT Head
        {
          OFFSET -2.582385 14.449106 1.447547
          CHANNELS 3 Zrotation Xrotation Yrotation
          End Site
          {
            OFFSET 0 0 0
          }
        }
      }
      JOINT ShoulderLeft
      {
        OFFSET -16.241401 -4.942118 5.755673
        CHANNELS 3 Zrotation Xrotation Yrotation
        JOINT ElbowLeft
        {
          OFFSET -3.640646 -26.628239 1.046481
          CHANNELS 3 Zrotation Xrotation Yrotation
          JOINT WristLeft
          {
            OFFSET 1.119986 -23.280599 -3.632966
            CHANNELS 3 Zrotation Xrotation Yrotation
            JOINT HandLeft
            {
              OFFSET 0.478169 -3.869065 -0.706615
              CHANNELS 3 Zrotation Xrotation Yrotation
              JOINT HandTipLeft
              {
                OFFSET -0.740288 -5.824586 0.232759
                CHANNELS 3 Zrotation Xrotation Yrotation
                End Site
                {
                  OFFSET 0 0 0
                }
              }
              JOINT ThumbLeft
              {
                OFFSET -2.998819 -1.066569 -1.954811
                CHANNELS 3 Zrotation Xrotation Yrotation
                End Site
                {
                  OFFSET 0 0 0
                }
              }
            }
          }
        }
      }
      JOINT ShoulderRight
      {
        OFFSET 15.460684 -4.633945 -8.645305
        CHANNELS 3 Zrotation Xrotation Yrotation
        JOINT ElbowRight
        {
          OFFSET 6.753434 -26.041014 -4.785545
          CHANNELS 3 Zrotation Xrotation Yrotation
          JOINT WristRight
          {
            OFFSET 0.143555 -19.956478 -5.010566
            CHANNELS 3 Zrotation Xrotation Yrotation
            JOINT HandRight
            {
              OFFSET -0.456252 -7.215055 -1.144815
              CHANNELS 3 Zrotation Xrotation Yrotation
              JOINT HandTipRight
              {
                OFFSET -0.402258 -6.749426 -0.970086
                CHANNELS 3 Zrotation Xrotation Yrotation
                End Site
                {
                  OFFSET 0 0 0
                }
              }
              JOINT ThumbRight
              {
                OFFSET 1.129254 -0.368884 -2.816598
                CHANNELS 3 Zrotation Xrotation Yrotation
                End Site
                {
                  OFFSET 0 0 0
                }
              }
            }
          }
        }
      }
    }
  }
  JOINT HipLeft
  {
    OFFSET -6.675843 0.046306 -0.559447
    CHANNELS 3 Zrotation Xrotation Yrotation
    JOINT KneeLeft
    {
      OFFSET 2.927678 -29.091150 6.045324
      CHANNELS 3 Zrotation Xrotation Yrotation
      JOINT AnkleLeft
      {
        OFFSET 3.586103 -31.155347 7.611591
        CHANNELS 3 Zrotation Xrotation Yrotation
        JOINT FootLeft
        {
          OFFSET -3.788146 -4.602888 -12.814900
          CHANNELS 3 Zrotation Xrotation Yrotation
          End Site
          {
            OFFSET 0 0 0
          }
        }
      }
    }
  }
  JOINT HipRight
  {
    OFFSET 7.099112 1.066240 -6.673730
    CHANNELS 3 Zrotation Xrotation Yrotation
    JOINT KneeRight
    {
      OFFSET 6.883637 -30.715671 5.406742
      CHANNELS 3 Zrotation Xrotation Yrotation
      JOINT AnkleRight
      {
        OFFSET 4.102787 -30.200569 8.370654
        CHANNELS 3 Zrotation Xrotation Yrotation
        JOINT FootRight
        {
          OFFSET -3.945706 -4.589771 -12.815592
          CHANNELS 3 Zrotation Xrotation Yrotation
          End Site
          {
            OFFSET 0 0 0
          }
        }
      }
    }
  }
}
MOTION
Frames: 12
Frame Time: 0.033333
-20.543566 69.990846 379.825042 -0.000000 0.000000 23.934976 0.000000 0.000000 -23.934976 -0.000000 0.000000 0.000000 -0.000000 0.000000 0.000000 0.000000 0.000000 0.000000 -0.000000 0.000000 0.000000 -0.000000 0.000000 0.000000 -0.000000 0.000000 0.000000 -0.000000 0.000000 0.000000 0.000000 0.000000 0.000000 0.000000 0.000000 0.000000 -0.000000 0.000000 0.000000 -0.000000 0.000000 0.000000 -0.000000 0.000000 0.000000 -0.000000 0.000000 0.000000 0.000000 0.000000 0.000000 0.000000 0.000000 0.000000 0.000000 0.000000 -23.934976 -0.000000 0.000000 0.000000 -0.000000 0.000000 0.000000 0.000000 0.000000 0.000000 0.000000 0.000000 -23.934976 -0.000000 0.000000 0.000000 -0.000000 0.000000 0.000000 0.000000 0.000000 0.000000
-20.489733 69.979155 379.806714 -0.069374 -0.022385 23.978492 0.072484 -0.007740 -23.978500 -0.000000 0.000000 0.000000 -0.000000 0.000000 0.000000 0.000000 0.000000 0.000000 -0.000000 0.000000 0.000000 -0.000000 0.000000 0.000000 -1.870699 -3.681307 -0.174944 0.485200 5.896240 -0.165884 0.000000 0.000000 0.000000 0.000000 0.000000 0.000000 -0.000000 0.000000 0.000000 -0.000000 0.000000 0.000000 -2.411999 0.396752 0.365344 1.081568 -0.704506 -0.152802 0.000000 0.000000 0.000000 0.000000 0.000000 0.000000 0.072484 -0.007740 -23.978500 -0.000000 0.000000 0.000000 -0.000000 0.000000 0.000000 0.000000 0.000000 0.000000 0.072484 -0.007740 -23.978500 -0.000000 0.000000 0.000000 -0.000000 0.000000 0.000000 0.000000 0.000000 0.000000
-20.445108 69.970955 379.791617 -0.140360 -0.044724 24.019256 0.146411 -0.016281 -24.019290 -0.000000 0.000000 0.000000 -0.000000 0.000000 0.000000 0.000000 0.000000 0.000000 -0.709571 -0.763813 0.071735 0.710590 0.762865 -0.081196 -3.376375 -6.503247 -0.385046 1.368179 10.291639 -0.265913 0.000000 0.000000 0.000000 0.000000 0.000000 0.000000 -0.000000 0.000000 0.000000 -0.000000 0.000000 0.000000 -4.617496 0.745646 0.713402 2.222594 -1.433248 -0.316627 0.000000 0.000000 0.000000 0.000000 0.000000 0.000000 0.146411 -0.016281 -24.019290 -0.000000 0.000000 0.000000 -0.000000 0.000000 0.000000 0.000000 0.000000 0.000000 0.146411 -0.016281 -24.019290 -0.000000 0.000000 0.000000 -0.000000 0.000000 0.000000 0.000000 0.000000 0.000000
-20.409691 69.966248 379.779752 -0.212977 -0.067023 24.057246 0.221800 -0.025619 -24.057321 -0.000000 0.000000 0.000000 -0.000000 0.000000 0.000000 0.000000 0.000000 0.000000 -0.964719 -1.030462 0.094158 0.966567 1.028729 -0.111512 -4.478330 -8.408421 -0.562374 2.643771 13.110605 -0.424096 0.000000 0.000000 0.000000 0.000000 0.000000 0.000000 -0.000000 0.000000 0.000000 -0.000000 0.000000 0.000000 -6.591085 1.046252 1.035748 3.379240 -2.182855 -0.481658 0.000000 0.000000 0.000000 0.000000 0.000000 0.000000 0.221800 -0.025619 -24.057321 -0.000000 0.000000 0.000000 -0.000000 0.000000 0.000000 0.000000 0.000000 0.000000 0.221800 -0.025619 -24.057321 -0.000000 0.000000 0.000000 -0.000000 0.000000 0.000000 0.000000 0.000000 0.000000
-20.383480 69.965034 379.771116 -0.287245 -0.089288 24.092439 0.298671 -0.035747 -24.092570 -0.000000 0.000000 0.000000 -0.000000 0.000000 0.000000 0.000000 0.000000 0.000000 -1.153343 -1.219882 0.108988 1.155923 1.217439 -0.133549 -5.152536 -9.379914 -0.656661 4.303929 14.326195 -0.679201 0.000000 0.000000 0.000000 0.000000 0.000000 0.000000 -0.000000 0.000000 0.000000 -0.853121 -0.101605 0.212772 -7.455168 1.427774 1.127264 4.518440 -2.951671 -0.640231 0.000000 0.000000 0.000000 0.000000 0.000000 0.000000 0.298671 -0.035747 -24.092570 -0.000000 0.000000 0.000000 -0.000000 0.000000 0.000000 0.000000 0.000000 0.000000 0.298671 -0.035747 -24.092570 -0.000000 0.000000 0.000000 -0.000000 0.000000 0.000000 0.000000 0.000000 0.000000
-20.366478 69.967312 379.765712 -0.363184 -0.111525 24.124812 0.377046 -0.046660 -24.125011 -0.000000 0.000000 0.000000 -0.712229 0.444972 0.153757 0.000000 0.000000 0.000000 -1.275402 -1.331910 0.116927 1.278461 1.328974 -0.146581 -5.389554 -9.422333 -0.639920 6.315580 13.938427 -0.979156 0.000000 0.000000 0.000000 0.000000 0.000000 0.000000 -0.000000 0.000000 0.000000 -1.106881 -0.048637 0.277147 -8.655511 1.596650 1.308764 5.617228 -3.739788 -0.786427 0.000000 0.000000 0.000000 0.000000 0.000000 0.000000 0.377046 -0.046660 -24.125011 -0.000000 0.000000 0.000000 -0.000000 0.000000 0.000000 0.000000 0.000000 0.000000 0.377046 -0.046660 -24.125011 -0.000000 0.000000 0.000000 -0.000000 0.000000 0.000000 0.000000 0.000000 0.000000
-20.343462 69.979178 379.767047 -0.428388 -0.136828 24.221310 0.446811 -0.050971 -24.221622 -0.000000 0.000000 0.000000 -0.518550 0.616200 0.164913 0.000000 0.000000 0.000000 -1.247924 -1.527168 0.142843 1.252170 1.523689 -0.176127 -4.463905 -9.557417 -0.756815 7.106291 11.446989 -0.612064 0.000000 0.000000 0.000000 0.000000 0.000000 0.000000 -0.000000 0.000000 0.000000 -1.413345 0.012413 0.355136 -9.121740 1.856910 1.363570 6.343374 -5.947621 -0.828555 0.000000 0.000000 0.000000 0.000000 0.000000 0.000000 0.990475 -1.134062 -24.097861 -1.799153 1.215136 -0.256245 0.862522 -0.444502 0.162614 0.000000 0.000000 0.000000 0.446811 -0.050971 -24.221622 -0.000000 0.000000 0.000000 -0.000000 0.000000 0.000000 0.000000 0.000000 0.000000
-20.341055 69.989801 379.767858 -0.510587 -0.150468 24.278990 0.527296 -0.072786 -24.279325 -0.000000 0.000000 0.000000 -0.303324 0.762157 0.168589 0.000000 0.000000 0.000000 -1.228301 -1.479988 0.137946 1.232270 1.476686 -0.169692 -4.049063 -7.929159 -0.531504 10.754398 9.233249 -0.940587 0.000000 0.000000 0.000000 0.000000 0.000000 0.000000 -0.000000 0.000000 0.000000 -1.735647 0.119987 0.438421 -9.775736 1.727773 1.432109 7.809067 -6.352553 -0.995029 0.000000 0.000000 0.000000 0.000000 0.000000 0.000000 1.113780 -0.847629 -24.144339 -1.663484 0.689778 -0.291734 0.812448 -0.218464 0.174672 0.000000 0.000000 0.000000 0.527296 -0.072786 -24.279325 -0.000000 0.000000 0.000000 -0.000000 0.000000 0.000000 0.000000 0.000000 0.000000
-20.359021 70.002103 379.776663 -0.603320 -0.165302 24.338736 0.617825 -0.098040 -24.339078 -0.000000 0.000000 0.000000 -0.000000 0.000000 0.000000 0.000000 0.000000 0.000000 -1.231106 -0.891234 0.063781 1.232246 0.889657 -0.082923 -4.238993 -2.411377 0.390498 15.122625 3.722145 -0.902454 0.000000 0.000000 0.000000 0.000000 0.000000 0.000000 -0.000000 0.000000 0.000000 -2.020288 0.272015 0.513804 -10.476597 1.768435 1.508516 8.609408 -8.140314 -1.064575 0.000000 0.000000 0.000000 0.000000 0.000000 0.000000 0.617825 -0.098040 -24.339078 -0.000000 0.000000 0.000000 -0.000000 0.000000 0.000000 0.000000 0.000000 0.000000 0.617825 -0.098040 -24.339078 0.791258 -0.036934 0.214333 -0.791114 0.039890 -0.213802 0.000000 0.000000 0.000000
-20.365043 70.013377 379.795406 -0.734698 -0.140809 24.390225 -0.137072 0.032027 -24.418944 -0.082204 -0.006104 -0.042961 0.551050 0.866378 0.237018 0.000000 0.000000 0.000000 -0.327177 -0.353712 0.089124 1.282801 0.527116 -0.027601 -3.130300 3.135831 1.043465 17.764649 -0.934528 -0.053280 0.000000 0.000000 0.000000 0.000000 0.000000 0.000000 0.954754 0.175487 0.069417 -2.344589 0.354147 0.598162 -11.238758 1.835312 1.604565 9.217109 -6.156891 -1.213372 0.000000 0.000000 0.000000 0.000000 0.000000 0.000000 0.704016 2.018480 -24.382155 2.026182 -3.761284 0.127184 -1.094969 1.774731 -0.046493 0.000000 0.000000 0.000000 0.727276 -0.175153 -24.390016 1.213012 -0.253942 0.303787 -1.211661 0.260313 -0.298346 0.000000 0.000000 0.000000
-20.430049 70.010365 379.804850 -0.906441 -0.128626 24.129124 -0.136860 0.019956 -24.163574 -0.102559 -0.027816 -0.051697 1.141789 0.195806 0.082925 0.000000 0.000000 0.000000 -0.334269 -0.212551 0.080218 0.525367 0.586737 0.162656 -0.681761 5.972452 0.979981 18.558143 -0.877621 0.078184 0.000000 0.000000 0.000000 0.000000 0.000000 0.000000 1.141789 0.195806 0.082925 -2.608021 0.673162 0.674195 -11.850265 1.974558 1.642839 9.472009 -5.281315 -1.260459 0.000000 0.000000 0.000000 0.000000 0.000000 0.000000 0.197826 4.831459 -24.224248 4.763686 -7.223800 0.594730 -2.016313 2.885402 -0.110585 0.000000 0.000000 0.000000 0.879826 -0.253161 -24.128198 1.433168 -0.507954 0.333619 -1.430245 0.516130 -0.320824 0.000000 0.000000 0.000000
-20.577728 70.036728 379.764325 -1.037467 -0.218568 23.390679 -0.115223 -0.035898 -23.428931 -0.096271 -0.063297 -0.054603 1.224719 0.362411 0.086002 0.000000 0.000000 0.000000 -0.487806 0.273786 0.040061 -0.129668 1.553008 0.437920 1.943220 6.912284 0.674790 19.072487 1.742088 -0.444680 0.000000 0.000000 0.000000 0.000000 0.000000 0.000000 1.224719 0.362411 0.086002 -2.713968 1.091912 0.713662 -12.523182 1.235549 1.623504 9.549117 -1.275840 -1.366697 0.000000 0.000000 0.000000 0.000000 0.000000 0.000000 -0.384560 8.160079 -23.540072 7.202840 -10.881836 1.090074 -2.440164 3.823724 -0.075292 0.000000 0.000000 0.000000 1.748312 0.672670 -23.095509 1.144154 -1.859970 0.034654 -1.449370 0.768924 -0.288587 0.000000 0.000000 0.000000
